# xmcd
# 
# Track frame offsets:
#     150
#     17333
#     29289
#     42318
#     53563
#     65798
#     82379
#     93145
#     107734
#     123025
#     135775
#     148706
#     165949
#     173624
#     187890
#     200643
# 
# Disc length: 2878
# 
# Revision: 1
# Processed by: cddbd v1.5.2PL0 Copyright (c) Steve Scherf et al.
# Submitted via: BonkEnc v1.0.8
# 
DISCID=c70b3c10
DTITLE=Various Artist - libro Starclub Cd 1
DYEAR=0
DGENRE=Schlager
TTITLE0=Die Alpenrebellen\nDer Volksmusikre - Der Volksmusikrebell
TTITLE1=Roy Black - Fremde Erde
TTITLE2=Waldheimat Musikanten\nUnd a Waldbua bin i\n - Und a Waldbua bin i
TTITLE3=Die Stoakogler\nHeut geb'n ma - Heut geb'n ma Vollgas
TTITLE4=Geraldine Olivier - Nimm Dir wieder einmal Zeit
TTITLE5=Hochecker Musikanten\nIch haß' es dich zu lieb\n - Ich haß es dich zu lieben
TTITLE6=Orig. Alpenland Quintett and Superländlerkapelle - Gockel Walzer
TTITLE7=Andy Borg - Arrivederci Claire
TTITLE8=Nina and Mike - No me Hables
TTITLE9=Zillertaler Vagabunden\nDie Wandervögel\n\n - Die Wandervögel
TTITLE10=Die Thannhauser - In jeder Nacht mit Dir
TTITLE11=Kristina Bach - Allein auf einem Stern
TTITLE12=Die Pöllauer - Mit Musik durch's Alpenland
TTITLE13=Orig. Nilsen Brothers\nAber Dich gibt's nur  - Aber Dich gibt's nur einmal für mich
TTITLE14=Karl Moik - Zwei Herzen beim Wein
TTITLE15=Marc Julian - Verbotene Liebe
EXTD=Rondo 22544
EXTT0=
EXTT1=
EXTT2=
EXTT3=
EXTT4=
EXTT5=
EXTT6=
EXTT7=
EXTT8=
EXTT9=
EXTT10=
EXTT11=
EXTT12=
EXTT13=
EXTT14=
EXTT15=
PLAYORDER=
